#!OML:ASF H:\Punching\Project 1\Capture day 1\Session 1\female.ASF
:FULLY-SPECIFIED
:DEGREES
1126
root 1.46469 15.2319 11.8664 23.2833 -21.5712 -4.94727
lowerback 3.42248 -1.65284 0.0342849
upperback -4.70179 -2.03464 3.50917
thorax -6.69706 -0.921358 3.84201
lowerneck -0.110076 13.6421 22.3212
upperneck 20.6351 20.8193 -16.9552
head 10.889 10.3034 -7.12182
rclavicle -8.67944e-014 7.45443e-015
rhumerus 5.26682 45.3063 -68.2091
rradius 129.315
rwrist -17.9589
rhand -17.8701 2.62302
rfingers 7.12502
rthumb 8.39569 -27.1901
lclavicle -8.67944e-014 7.45443e-015
lhumerus -22.5234 -63.6846 45.7451
lradius 58.7701
lwrist 5.45667
lhand -0.857942 11.0805
lfingers 7.12502
lthumb 24.7684 39.4967
rfemur -6.57911 8.63783 5.05355
rtibia 5.78248
rfoot -9.16585 -20.432
rtoes -10.4008
lfemur -49.8459 3.89243 -12.5809
ltibia 46.8387
lfoot -14.463 11.866
ltoes -0.595494
1127
root 1.44873 15.24 11.8486 23.1609 -21.5797 -4.89004
lowerback 3.41558 -1.66775 0.00760382
upperback -4.705 -2.05996 3.44521
thorax -6.69588 -0.934185 3.79159
lowerneck -0.0915072 13.6035 22.3277
upperneck 20.565 20.7494 -16.9222
head 10.8393 10.2753 -7.12406
rclavicle -7.61966e-014 -1.67476e-014
rhumerus 5.31101 45.2191 -68.3107
rradius 129.277
rwrist -17.9796
rhand -17.8604 2.58681
rfingers 7.12502
rthumb 8.40508 -27.2259
lclavicle -7.61966e-014 -1.67476e-014
lhumerus -21.8295 -63.7838 45.3301
lradius 58.826
lwrist 4.94399
lhand -0.761798 10.7
lfingers 7.12502
lthumb 24.8605 39.1036
rfemur -7.04813 8.58417 4.90969
rtibia 6.78517
rfoot -9.41668 -19.6554
rtoes -10.24
lfemur -49.6006 3.81943 -12.4902
ltibia 46.5378
lfoot -14.3122 11.8706
ltoes -0.667924
1128
root 1.43109 15.2479 11.8296 23.0241 -21.6097 -4.82639
lowerback 3.40067 -1.66208 0.00182205
upperback -4.71077 -2.05733 3.36135
thorax -6.69592 -0.9347 3.70576
lowerneck -0.0842905 13.5543 22.3345
upperneck 20.515 20.6608 -16.871
head 10.7927 10.2391 -7.1229
rclavicle 8.32038e-014 3.31473e-014
rhumerus 5.26147 45.0898 -68.4538
rradius 129.27
rwrist -18.111
rhand -17.7859 2.49491
rfingers 7.12502
rthumb 8.47693 -27.3149
lclavicle 8.32038e-014 3.31473e-014
lhumerus -21.063 -63.9263 44.8719
lradius 58.8981
lwrist 4.80955
lhand -0.767765 10.5669
lfingers 7.12502
lthumb 24.8548 38.9712
rfemur -7.46915 8.55049 4.74667
rtibia 7.69292
rfoot -9.65415 -18.838
rtoes -10.0237
lfemur -49.334 3.74982 -12.3975
ltibia 46.2321
lfoot -14.1625 11.889
ltoes -0.741399
1129
root 1.41163 15.2555 11.8095 22.8693 -21.6569 -4.75475
lowerback 3.38048 -1.64362 0.00363101
upperback -4.71569 -2.0377 3.2664
thorax -6.69363 -0.927492 3.60227
lowerneck -0.0896268 13.5011 22.3418
upperneck 20.4837 20.5642 -16.8089
head 10.7524 10.1992 -7.1188
rclavicle 1.63376e-015 8.27441e-015
rhumerus 5.14415 44.9373 -68.6222
rradius 129.278
rwrist -18.318
rhand -17.6773 2.39785
rfingers 7.12502
rthumb 8.58173 -27.4077
lclavicle 1.63376e-015 8.27441e-015
lhumerus -20.2619 -64.0642 44.3965
lradius 58.9968
lwrist 5.01533
lhand -0.87522 10.6737
lfingers 7.12502
lthumb 24.7518 39.0922
rfemur -7.85464 8.53322 4.5672
rtibia 8.54084
rfoot -9.90414 -17.9881
rtoes -9.78688
lfemur -49.047 3.68593 -12.3061
ltibia 45.9274
lfoot -14.011 11.9135
ltoes -0.828309
1130
root 1.39018 15.2625 11.7879 22.6993 -21.705 -4.67263
lowerback 3.35655 -1.62325 0.00302849
upperback -4.72221 -2.01568 3.17192
thorax -6.69089 -0.918983 3.50042
lowerneck -0.100349 13.4497 22.3501
upperneck 20.4678 20.4717 -16.7471
head 10.7199 10.1609 -7.11409
rclavicle 1.08897e-014 -6.21202e-015
rhumerus 4.9822 44.7806 -68.7986
rradius 129.283
rwrist -18.5432
rhand -17.5603 2.29565
rfingers 7.12502
rthumb 8.69465 -27.5053
lclavicle 1.08897e-014 -6.21202e-015
lhumerus -19.4829 -64.1396 43.951
lradius 59.1347
lwrist 5.47439
lhand -1.05954 10.9708
lfingers 7.12502
lthumb 24.5751 39.4134
rfemur -8.21558 8.51638 4.37939
rtibia 9.3559
rfoot -10.1698 -17.1186
rtoes -9.57076
lfemur -48.7531 3.62412 -12.2157
ltibia 45.628
lfoot -13.8539 11.9295
ltoes -0.927531
1131
root 1.36663 15.2688 11.7649 22.5163 -21.7453 -4.5824
lowerback 3.32741 -1.60389 -0.000647885
upperback -4.73115 -1.9949 3.08444
thorax -6.68726 -0.910765 3.40773
lowerneck -0.111234 13.399 22.3517
upperneck 20.4632 20.3828 -16.6864
head 10.692 10.1237 -7.10833
rclavicle -1.85242e-014 2.14936e-015
rhumerus 4.76848 44.6279 -68.9821
rradius 129.274
rwrist -18.7141
rhand -17.4565 2.20962
rfingers 7.12502
rthumb 8.79486 -27.5871
lclavicle -1.85242e-014 2.14936e-015
lhumerus -18.7522 -64.0992 43.5614
lradius 59.3202
lwrist 6.06811
lhand -1.28483 11.3893
lfingers 7.12502
lthumb 24.3592 39.8612
rfemur -8.5553 8.49299 4.19126
rtibia 10.1502
rfoot -10.465 -16.2429
rtoes -9.35265
lfemur -48.4584 3.56678 -12.1251
ltibia 45.3373
lfoot -13.6864 11.9275
ltoes -1.05918
1132
root 1.34085 15.2743 11.7401 22.3199 -21.7709 -4.48045
lowerback 3.29514 -1.5943 -0.0195541
upperback -4.74078 -1.9876 3.01028
thorax -6.68086 -0.908162 3.33874
lowerneck -0.1219 13.3555 22.344
upperneck 20.4648 20.3073 -16.6309
head 10.669 10.0917 -7.10065
rclavicle -2.84511e-015 -2.76311e-014
rhumerus 4.52553 44.4946 -69.1616
rradius 129.243
rwrist -18.7856
rhand -17.3807 2.14023
rfingers 7.12502
rthumb 8.86803 -27.6534
lclavicle -2.84511e-015 -2.76311e-014
lhumerus -18.1119 -63.8846 43.2547
lradius 59.5694
lwrist 6.68239
lhand -1.51998 11.86
lfingers 7.12502
lthumb 24.1337 40.362
rfemur -8.87378 8.47593 4.00188
rtibia 10.9288
rfoot -10.777 -15.3899
rtoes -9.14145
lfemur -48.1686 3.51106 -12.0355
ltibia 45.057
lfoot -13.5075 11.9011
ltoes -1.21781
1133
root 1.31282 15.2789 11.7136 22.1113 -21.7751 -4.36753
lowerback 3.25893 -1.59631 -0.0500391
upperback -4.75654 -1.99564 2.95448
thorax -6.67691 -0.912058 3.29699
lowerneck -0.114463 13.3144 22.3122
upperneck 20.468 20.2418 -16.5797
head 10.6431 10.0634 -7.09051
rclavicle -8.96829e-014 1.70458e-014
rhumerus 4.23664 44.3866 -69.3373
rradius 129.194
rwrist -18.7449
rhand -17.3293 2.08251
rfingers 7.12502
rthumb 8.91755 -27.709
lclavicle -8.96829e-014 1.70458e-014
lhumerus -17.6065 -63.4708 43.0804
lradius 59.8936
lwrist 7.22358
lhand -1.74573 12.3338
lfingers 7.12502
lthumb 23.9173 40.8643
rfemur -9.16361 8.45405 3.81611
rtibia 11.684
rfoot -11.1114 -14.553
rtoes -8.93773
lfemur -47.8871 3.4575 -11.9471
ltibia 44.7879
lfoot -13.3154 11.8449
ltoes -1.41112
